<svg xmlns="http://www.w3.org/2000/svg" width="302.201" height="255.706" viewBox="0 0 302.201 255.706"><defs><style>.a{opacity:0.1;}.b{fill:#414141;}</style></defs><g class="a" transform="translate(0 -36.547)"><g transform="translate(0 36.547)"><path class="b" d="M104.61,36.547H34.87a33.635,33.635,0,0,0-24.7,10.169A33.633,33.633,0,0,0,0,71.417v69.737a33.617,33.617,0,0,0,10.169,24.7,33.64,33.64,0,0,0,24.7,10.17H75.551a17.362,17.362,0,0,1,17.434,17.436v5.808a44.8,44.8,0,0,1-13.621,32.871,44.8,44.8,0,0,1-32.873,13.618H34.87a11.18,11.18,0,0,0-8.175,3.452,11.169,11.169,0,0,0-3.45,8.172v23.249A11.18,11.18,0,0,0,26.7,288.8a11.185,11.185,0,0,0,8.175,3.452H46.492A90.61,90.61,0,0,0,82.544,284.9a93.675,93.675,0,0,0,29.693-19.888,93.709,93.709,0,0,0,19.885-29.693,90.586,90.586,0,0,0,7.355-36.049V71.414A34.721,34.721,0,0,0,104.61,36.547Z" transform="translate(0 -36.547)"/><path class="b" d="M385.119,46.716a33.625,33.625,0,0,0-24.7-10.169H290.683a34.718,34.718,0,0,0-34.866,34.87v69.737a34.719,34.719,0,0,0,34.866,34.867h40.681A17.362,17.362,0,0,1,348.8,193.458v5.808a46.5,46.5,0,0,1-46.493,46.489H290.683a11.791,11.791,0,0,0-11.625,11.624v23.249a11.791,11.791,0,0,0,11.625,11.625h11.624a90.616,90.616,0,0,0,36.051-7.357,92.113,92.113,0,0,0,49.579-49.581,90.59,90.59,0,0,0,7.355-36.049V71.414A33.615,33.615,0,0,0,385.119,46.716Z" transform="translate(-93.091 -36.547)"/></g></g></svg>